<mxfile host="Electron" modified="2023-08-28T15:58:32.843Z" agent="Mozilla/5.0 (Windows NT 10.0; Win64; x64) AppleWebKit/537.36 (KHTML, like Gecko) draw.io/21.1.2 Chrome/106.0.5249.199 Electron/21.4.3 Safari/537.36" etag="OBjcxX9NmDOFg7n3N2Rx" version="21.1.2" type="device" pages="2">
  <diagram name="Структура проекта" id="e7u3Y53r0UkrAbNiOiyA">
    <mxGraphModel dx="1687" dy="984" grid="1" gridSize="10" guides="1" tooltips="1" connect="1" arrows="1" fold="1" page="1" pageScale="1" pageWidth="3300" pageHeight="4681" math="0" shadow="0">
      <root>
        <mxCell id="0" />
        <mxCell id="1" parent="0" />
        <mxCell id="oMwQqYKx-4TcCJLxa_ix-23" style="edgeStyle=orthogonalEdgeStyle;rounded=0;orthogonalLoop=1;jettySize=auto;html=1;exitX=0.5;exitY=1;exitDx=0;exitDy=0;" parent="1" source="_5kk-izrj-bgUAr5MB_E-3" target="k0sccvDhhyas8OTAFXKg-4" edge="1">
          <mxGeometry relative="1" as="geometry" />
        </mxCell>
        <mxCell id="oMwQqYKx-4TcCJLxa_ix-39" style="edgeStyle=orthogonalEdgeStyle;rounded=0;orthogonalLoop=1;jettySize=auto;html=1;exitX=0.5;exitY=1;exitDx=0;exitDy=0;" parent="1" source="_5kk-izrj-bgUAr5MB_E-3" target="oMwQqYKx-4TcCJLxa_ix-34" edge="1">
          <mxGeometry relative="1" as="geometry" />
        </mxCell>
        <mxCell id="oMwQqYKx-4TcCJLxa_ix-40" style="edgeStyle=orthogonalEdgeStyle;rounded=0;orthogonalLoop=1;jettySize=auto;html=1;exitX=0.5;exitY=1;exitDx=0;exitDy=0;" parent="1" source="_5kk-izrj-bgUAr5MB_E-3" target="k0sccvDhhyas8OTAFXKg-1" edge="1">
          <mxGeometry relative="1" as="geometry" />
        </mxCell>
        <mxCell id="oMwQqYKx-4TcCJLxa_ix-41" style="edgeStyle=orthogonalEdgeStyle;rounded=0;orthogonalLoop=1;jettySize=auto;html=1;exitX=0.5;exitY=1;exitDx=0;exitDy=0;" parent="1" source="_5kk-izrj-bgUAr5MB_E-3" target="k0sccvDhhyas8OTAFXKg-3" edge="1">
          <mxGeometry relative="1" as="geometry" />
        </mxCell>
        <mxCell id="oMwQqYKx-4TcCJLxa_ix-42" style="edgeStyle=orthogonalEdgeStyle;rounded=0;orthogonalLoop=1;jettySize=auto;html=1;exitX=0.5;exitY=1;exitDx=0;exitDy=0;" parent="1" source="_5kk-izrj-bgUAr5MB_E-3" target="k0sccvDhhyas8OTAFXKg-10" edge="1">
          <mxGeometry relative="1" as="geometry" />
        </mxCell>
        <mxCell id="_5kk-izrj-bgUAr5MB_E-3" value="" style="rounded=0;whiteSpace=wrap;html=1;" parent="1" vertex="1">
          <mxGeometry x="840" y="40" width="420" height="90" as="geometry" />
        </mxCell>
        <mxCell id="oMwQqYKx-4TcCJLxa_ix-27" style="edgeStyle=orthogonalEdgeStyle;rounded=0;orthogonalLoop=1;jettySize=auto;html=1;exitX=0.5;exitY=1;exitDx=0;exitDy=0;" parent="1" source="k0sccvDhhyas8OTAFXKg-1" target="k0sccvDhhyas8OTAFXKg-9" edge="1">
          <mxGeometry relative="1" as="geometry" />
        </mxCell>
        <mxCell id="oMwQqYKx-4TcCJLxa_ix-46" style="edgeStyle=orthogonalEdgeStyle;rounded=0;orthogonalLoop=1;jettySize=auto;html=1;exitX=0.5;exitY=1;exitDx=0;exitDy=0;" parent="1" source="k0sccvDhhyas8OTAFXKg-1" target="oMwQqYKx-4TcCJLxa_ix-45" edge="1">
          <mxGeometry relative="1" as="geometry" />
        </mxCell>
        <mxCell id="k0sccvDhhyas8OTAFXKg-1" value="Личный кабинет" style="rounded=0;whiteSpace=wrap;html=1;" parent="1" vertex="1">
          <mxGeometry x="230" y="180" width="160" height="60" as="geometry" />
        </mxCell>
        <mxCell id="k0sccvDhhyas8OTAFXKg-2" value="Авторизация" style="rounded=0;whiteSpace=wrap;html=1;" parent="1" vertex="1">
          <mxGeometry x="870" y="55" width="150" height="60" as="geometry" />
        </mxCell>
        <mxCell id="oMwQqYKx-4TcCJLxa_ix-47" style="edgeStyle=orthogonalEdgeStyle;rounded=0;orthogonalLoop=1;jettySize=auto;html=1;exitX=0.5;exitY=1;exitDx=0;exitDy=0;" parent="1" source="k0sccvDhhyas8OTAFXKg-3" target="_5kk-izrj-bgUAr5MB_E-4" edge="1">
          <mxGeometry relative="1" as="geometry" />
        </mxCell>
        <mxCell id="Zp3wQdkSA_9M_BhMaZ8s-2" style="edgeStyle=orthogonalEdgeStyle;rounded=0;orthogonalLoop=1;jettySize=auto;html=1;exitX=0.5;exitY=1;exitDx=0;exitDy=0;entryX=0.5;entryY=0;entryDx=0;entryDy=0;" edge="1" parent="1" source="k0sccvDhhyas8OTAFXKg-3" target="Zp3wQdkSA_9M_BhMaZ8s-1">
          <mxGeometry relative="1" as="geometry" />
        </mxCell>
        <mxCell id="Zp3wQdkSA_9M_BhMaZ8s-4" style="edgeStyle=orthogonalEdgeStyle;rounded=0;orthogonalLoop=1;jettySize=auto;html=1;exitX=0.5;exitY=1;exitDx=0;exitDy=0;" edge="1" parent="1" source="k0sccvDhhyas8OTAFXKg-3" target="Zp3wQdkSA_9M_BhMaZ8s-3">
          <mxGeometry relative="1" as="geometry" />
        </mxCell>
        <mxCell id="k0sccvDhhyas8OTAFXKg-3" value="Страница поиска" style="rounded=0;whiteSpace=wrap;html=1;" parent="1" vertex="1">
          <mxGeometry x="1260" y="180" width="160" height="60" as="geometry" />
        </mxCell>
        <mxCell id="oMwQqYKx-4TcCJLxa_ix-43" style="edgeStyle=orthogonalEdgeStyle;rounded=0;orthogonalLoop=1;jettySize=auto;html=1;exitX=0.5;exitY=1;exitDx=0;exitDy=0;" parent="1" source="k0sccvDhhyas8OTAFXKg-4" target="k0sccvDhhyas8OTAFXKg-8" edge="1">
          <mxGeometry relative="1" as="geometry" />
        </mxCell>
        <mxCell id="k0sccvDhhyas8OTAFXKg-4" value="Чат" style="rounded=0;whiteSpace=wrap;html=1;" parent="1" vertex="1">
          <mxGeometry x="970" y="180" width="160" height="60" as="geometry" />
        </mxCell>
        <mxCell id="k0sccvDhhyas8OTAFXKg-8" value="Страница чата" style="rounded=0;whiteSpace=wrap;html=1;" parent="1" vertex="1">
          <mxGeometry x="970" y="290" width="160" height="60" as="geometry" />
        </mxCell>
        <mxCell id="k0sccvDhhyas8OTAFXKg-9" value="Профиль" style="rounded=0;whiteSpace=wrap;html=1;" parent="1" vertex="1">
          <mxGeometry x="60" y="290" width="160" height="60" as="geometry" />
        </mxCell>
        <mxCell id="k0sccvDhhyas8OTAFXKg-10" value="База знаний" style="rounded=0;whiteSpace=wrap;html=1;" parent="1" vertex="1">
          <mxGeometry x="1470" y="180" width="160" height="60" as="geometry" />
        </mxCell>
        <mxCell id="_5kk-izrj-bgUAr5MB_E-1" value="Регистрация" style="rounded=0;whiteSpace=wrap;html=1;" parent="1" vertex="1">
          <mxGeometry x="1070" y="55" width="150" height="60" as="geometry" />
        </mxCell>
        <mxCell id="_5kk-izrj-bgUAr5MB_E-4" value="Страница проекта" style="rounded=0;whiteSpace=wrap;html=1;" parent="1" vertex="1">
          <mxGeometry x="1470" y="300" width="160" height="60" as="geometry" />
        </mxCell>
        <mxCell id="oMwQqYKx-4TcCJLxa_ix-33" style="edgeStyle=orthogonalEdgeStyle;rounded=0;orthogonalLoop=1;jettySize=auto;html=1;exitX=0.5;exitY=1;exitDx=0;exitDy=0;" parent="1" source="oMwQqYKx-4TcCJLxa_ix-34" target="oMwQqYKx-4TcCJLxa_ix-37" edge="1">
          <mxGeometry relative="1" as="geometry" />
        </mxCell>
        <mxCell id="oMwQqYKx-4TcCJLxa_ix-44" style="edgeStyle=orthogonalEdgeStyle;rounded=0;orthogonalLoop=1;jettySize=auto;html=1;exitX=0.5;exitY=1;exitDx=0;exitDy=0;" parent="1" source="oMwQqYKx-4TcCJLxa_ix-34" target="oMwQqYKx-4TcCJLxa_ix-35" edge="1">
          <mxGeometry relative="1" as="geometry" />
        </mxCell>
        <mxCell id="oMwQqYKx-4TcCJLxa_ix-34" value="Проекты" style="rounded=0;whiteSpace=wrap;html=1;" parent="1" vertex="1">
          <mxGeometry x="590" y="180" width="160" height="60" as="geometry" />
        </mxCell>
        <mxCell id="oMwQqYKx-4TcCJLxa_ix-35" value="Добавление проекта" style="rounded=0;whiteSpace=wrap;html=1;" parent="1" vertex="1">
          <mxGeometry x="720" y="290" width="160" height="60" as="geometry" />
        </mxCell>
        <mxCell id="oMwQqYKx-4TcCJLxa_ix-36" style="edgeStyle=orthogonalEdgeStyle;rounded=0;orthogonalLoop=1;jettySize=auto;html=1;exitX=0.5;exitY=1;exitDx=0;exitDy=0;entryX=0.5;entryY=0;entryDx=0;entryDy=0;" parent="1" source="oMwQqYKx-4TcCJLxa_ix-37" target="oMwQqYKx-4TcCJLxa_ix-38" edge="1">
          <mxGeometry relative="1" as="geometry" />
        </mxCell>
        <mxCell id="oMwQqYKx-4TcCJLxa_ix-37" value="Редактирование проекта" style="rounded=0;whiteSpace=wrap;html=1;" parent="1" vertex="1">
          <mxGeometry x="470" y="290" width="160" height="60" as="geometry" />
        </mxCell>
        <mxCell id="oMwQqYKx-4TcCJLxa_ix-38" value="Удаление проекта" style="rounded=0;whiteSpace=wrap;html=1;" parent="1" vertex="1">
          <mxGeometry x="470" y="400" width="160" height="60" as="geometry" />
        </mxCell>
        <mxCell id="oMwQqYKx-4TcCJLxa_ix-45" value="Настройки" style="rounded=0;whiteSpace=wrap;html=1;" parent="1" vertex="1">
          <mxGeometry x="230" y="400" width="160" height="60" as="geometry" />
        </mxCell>
        <mxCell id="Zp3wQdkSA_9M_BhMaZ8s-1" value="Новостная лента с рекомендациями" style="rounded=0;whiteSpace=wrap;html=1;" vertex="1" parent="1">
          <mxGeometry x="1370" y="400" width="160" height="60" as="geometry" />
        </mxCell>
        <mxCell id="Zp3wQdkSA_9M_BhMaZ8s-3" value="Страница пользователя" style="rounded=0;whiteSpace=wrap;html=1;" vertex="1" parent="1">
          <mxGeometry x="1100" y="400" width="160" height="60" as="geometry" />
        </mxCell>
      </root>
    </mxGraphModel>
  </diagram>
  <diagram id="FxRfPKvfxYe4WYhiYpaE" name="БД">
    <mxGraphModel dx="1434" dy="836" grid="1" gridSize="10" guides="1" tooltips="1" connect="1" arrows="1" fold="1" page="1" pageScale="1" pageWidth="3300" pageHeight="4681" math="0" shadow="0">
      <root>
        <mxCell id="0" />
        <mxCell id="1" parent="0" />
        <mxCell id="vNfD9TsJeQkA2UGQSEAP-1" value="Users" style="swimlane;fontStyle=0;childLayout=stackLayout;horizontal=1;startSize=26;horizontalStack=0;resizeParent=1;resizeParentMax=0;resizeLast=0;collapsible=1;marginBottom=0;align=center;fontSize=14;" vertex="1" parent="1">
          <mxGeometry x="670" y="113" width="160" height="86" as="geometry" />
        </mxCell>
        <mxCell id="vNfD9TsJeQkA2UGQSEAP-2" value="pkUser" style="text;strokeColor=none;fillColor=none;spacingLeft=4;spacingRight=4;overflow=hidden;rotatable=0;points=[[0,0.5],[1,0.5]];portConstraint=eastwest;fontSize=12;whiteSpace=wrap;html=1;" vertex="1" parent="vNfD9TsJeQkA2UGQSEAP-1">
          <mxGeometry y="26" width="160" height="30" as="geometry" />
        </mxCell>
        <mxCell id="vNfD9TsJeQkA2UGQSEAP-3" value="FIO" style="text;strokeColor=none;fillColor=none;spacingLeft=4;spacingRight=4;overflow=hidden;rotatable=0;points=[[0,0.5],[1,0.5]];portConstraint=eastwest;fontSize=12;whiteSpace=wrap;html=1;" vertex="1" parent="vNfD9TsJeQkA2UGQSEAP-1">
          <mxGeometry y="56" width="160" height="30" as="geometry" />
        </mxCell>
        <mxCell id="vNfD9TsJeQkA2UGQSEAP-5" value="Chats" style="swimlane;fontStyle=0;childLayout=stackLayout;horizontal=1;startSize=26;horizontalStack=0;resizeParent=1;resizeParentMax=0;resizeLast=0;collapsible=1;marginBottom=0;align=center;fontSize=14;" vertex="1" parent="1">
          <mxGeometry x="339.94" y="342" width="160" height="146" as="geometry" />
        </mxCell>
        <mxCell id="vNfD9TsJeQkA2UGQSEAP-16" value="pkChat" style="text;strokeColor=none;fillColor=none;spacingLeft=4;spacingRight=4;overflow=hidden;rotatable=0;points=[[0,0.5],[1,0.5]];portConstraint=eastwest;fontSize=12;whiteSpace=wrap;html=1;" vertex="1" parent="vNfD9TsJeQkA2UGQSEAP-5">
          <mxGeometry y="26" width="160" height="30" as="geometry" />
        </mxCell>
        <mxCell id="vNfD9TsJeQkA2UGQSEAP-6" value="fkUserFirst" style="text;strokeColor=none;fillColor=none;spacingLeft=4;spacingRight=4;overflow=hidden;rotatable=0;points=[[0,0.5],[1,0.5]];portConstraint=eastwest;fontSize=12;whiteSpace=wrap;html=1;" vertex="1" parent="vNfD9TsJeQkA2UGQSEAP-5">
          <mxGeometry y="56" width="160" height="30" as="geometry" />
        </mxCell>
        <mxCell id="vNfD9TsJeQkA2UGQSEAP-7" value="fkUserSecond" style="text;strokeColor=none;fillColor=none;spacingLeft=4;spacingRight=4;overflow=hidden;rotatable=0;points=[[0,0.5],[1,0.5]];portConstraint=eastwest;fontSize=12;whiteSpace=wrap;html=1;" vertex="1" parent="vNfD9TsJeQkA2UGQSEAP-5">
          <mxGeometry y="86" width="160" height="30" as="geometry" />
        </mxCell>
        <mxCell id="vNfD9TsJeQkA2UGQSEAP-8" value="..." style="text;strokeColor=none;fillColor=none;spacingLeft=4;spacingRight=4;overflow=hidden;rotatable=0;points=[[0,0.5],[1,0.5]];portConstraint=eastwest;fontSize=12;whiteSpace=wrap;html=1;" vertex="1" parent="vNfD9TsJeQkA2UGQSEAP-5">
          <mxGeometry y="116" width="160" height="30" as="geometry" />
        </mxCell>
        <mxCell id="vNfD9TsJeQkA2UGQSEAP-9" value="Messages" style="swimlane;fontStyle=0;childLayout=stackLayout;horizontal=1;startSize=26;horizontalStack=0;resizeParent=1;resizeParentMax=0;resizeLast=0;collapsible=1;marginBottom=0;align=center;fontSize=14;" vertex="1" parent="1">
          <mxGeometry x="349.94" y="100" width="160" height="206" as="geometry" />
        </mxCell>
        <mxCell id="vNfD9TsJeQkA2UGQSEAP-13" value="pkMessage" style="text;strokeColor=none;fillColor=none;spacingLeft=4;spacingRight=4;overflow=hidden;rotatable=0;points=[[0,0.5],[1,0.5]];portConstraint=eastwest;fontSize=12;whiteSpace=wrap;html=1;" vertex="1" parent="vNfD9TsJeQkA2UGQSEAP-9">
          <mxGeometry y="26" width="160" height="30" as="geometry" />
        </mxCell>
        <mxCell id="vNfD9TsJeQkA2UGQSEAP-10" value="messageText" style="text;strokeColor=none;fillColor=none;spacingLeft=4;spacingRight=4;overflow=hidden;rotatable=0;points=[[0,0.5],[1,0.5]];portConstraint=eastwest;fontSize=12;whiteSpace=wrap;html=1;" vertex="1" parent="vNfD9TsJeQkA2UGQSEAP-9">
          <mxGeometry y="56" width="160" height="30" as="geometry" />
        </mxCell>
        <mxCell id="vNfD9TsJeQkA2UGQSEAP-11" value="fileId" style="text;strokeColor=none;fillColor=none;spacingLeft=4;spacingRight=4;overflow=hidden;rotatable=0;points=[[0,0.5],[1,0.5]];portConstraint=eastwest;fontSize=12;whiteSpace=wrap;html=1;" vertex="1" parent="vNfD9TsJeQkA2UGQSEAP-9">
          <mxGeometry y="86" width="160" height="30" as="geometry" />
        </mxCell>
        <mxCell id="vNfD9TsJeQkA2UGQSEAP-14" value="sendTime" style="text;strokeColor=none;fillColor=none;spacingLeft=4;spacingRight=4;overflow=hidden;rotatable=0;points=[[0,0.5],[1,0.5]];portConstraint=eastwest;fontSize=12;whiteSpace=wrap;html=1;" vertex="1" parent="vNfD9TsJeQkA2UGQSEAP-9">
          <mxGeometry y="116" width="160" height="30" as="geometry" />
        </mxCell>
        <mxCell id="vNfD9TsJeQkA2UGQSEAP-15" value="fkChat" style="text;strokeColor=none;fillColor=none;spacingLeft=4;spacingRight=4;overflow=hidden;rotatable=0;points=[[0,0.5],[1,0.5]];portConstraint=eastwest;fontSize=12;whiteSpace=wrap;html=1;" vertex="1" parent="vNfD9TsJeQkA2UGQSEAP-9">
          <mxGeometry y="146" width="160" height="30" as="geometry" />
        </mxCell>
        <mxCell id="vNfD9TsJeQkA2UGQSEAP-12" value="fkUserOwner" style="text;strokeColor=none;fillColor=none;spacingLeft=4;spacingRight=4;overflow=hidden;rotatable=0;points=[[0,0.5],[1,0.5]];portConstraint=eastwest;fontSize=12;whiteSpace=wrap;html=1;" vertex="1" parent="vNfD9TsJeQkA2UGQSEAP-9">
          <mxGeometry y="176" width="160" height="30" as="geometry" />
        </mxCell>
        <mxCell id="vNfD9TsJeQkA2UGQSEAP-17" value="Projects" style="swimlane;fontStyle=0;childLayout=stackLayout;horizontal=1;startSize=26;horizontalStack=0;resizeParent=1;resizeParentMax=0;resizeLast=0;collapsible=1;marginBottom=0;align=center;fontSize=14;" vertex="1" parent="1">
          <mxGeometry x="880" y="478" width="160" height="146" as="geometry" />
        </mxCell>
        <mxCell id="vNfD9TsJeQkA2UGQSEAP-18" value="pkProject" style="text;strokeColor=none;fillColor=none;spacingLeft=4;spacingRight=4;overflow=hidden;rotatable=0;points=[[0,0.5],[1,0.5]];portConstraint=eastwest;fontSize=12;whiteSpace=wrap;html=1;" vertex="1" parent="vNfD9TsJeQkA2UGQSEAP-17">
          <mxGeometry y="26" width="160" height="30" as="geometry" />
        </mxCell>
        <mxCell id="vNfD9TsJeQkA2UGQSEAP-19" value="fkUserOwner" style="text;strokeColor=none;fillColor=none;spacingLeft=4;spacingRight=4;overflow=hidden;rotatable=0;points=[[0,0.5],[1,0.5]];portConstraint=eastwest;fontSize=12;whiteSpace=wrap;html=1;" vertex="1" parent="vNfD9TsJeQkA2UGQSEAP-17">
          <mxGeometry y="56" width="160" height="30" as="geometry" />
        </mxCell>
        <mxCell id="vNfD9TsJeQkA2UGQSEAP-20" value="fkUserSecond" style="text;strokeColor=none;fillColor=none;spacingLeft=4;spacingRight=4;overflow=hidden;rotatable=0;points=[[0,0.5],[1,0.5]];portConstraint=eastwest;fontSize=12;whiteSpace=wrap;html=1;" vertex="1" parent="vNfD9TsJeQkA2UGQSEAP-17">
          <mxGeometry y="86" width="160" height="30" as="geometry" />
        </mxCell>
        <mxCell id="vNfD9TsJeQkA2UGQSEAP-21" value="ProjectInfo" style="text;strokeColor=none;fillColor=none;spacingLeft=4;spacingRight=4;overflow=hidden;rotatable=0;points=[[0,0.5],[1,0.5]];portConstraint=eastwest;fontSize=12;whiteSpace=wrap;html=1;" vertex="1" parent="vNfD9TsJeQkA2UGQSEAP-17">
          <mxGeometry y="116" width="160" height="30" as="geometry" />
        </mxCell>
        <mxCell id="vNfD9TsJeQkA2UGQSEAP-22" value="ProjectCategories" style="swimlane;fontStyle=0;childLayout=stackLayout;horizontal=1;startSize=26;horizontalStack=0;resizeParent=1;resizeParentMax=0;resizeLast=0;collapsible=1;marginBottom=0;align=center;fontSize=14;" vertex="1" parent="1">
          <mxGeometry x="1130" y="478" width="160" height="116" as="geometry" />
        </mxCell>
        <mxCell id="vNfD9TsJeQkA2UGQSEAP-23" value="pkProjectCat" style="text;strokeColor=none;fillColor=none;spacingLeft=4;spacingRight=4;overflow=hidden;rotatable=0;points=[[0,0.5],[1,0.5]];portConstraint=eastwest;fontSize=12;whiteSpace=wrap;html=1;" vertex="1" parent="vNfD9TsJeQkA2UGQSEAP-22">
          <mxGeometry y="26" width="160" height="30" as="geometry" />
        </mxCell>
        <mxCell id="vNfD9TsJeQkA2UGQSEAP-24" value="fkProjcet" style="text;strokeColor=none;fillColor=none;spacingLeft=4;spacingRight=4;overflow=hidden;rotatable=0;points=[[0,0.5],[1,0.5]];portConstraint=eastwest;fontSize=12;whiteSpace=wrap;html=1;" vertex="1" parent="vNfD9TsJeQkA2UGQSEAP-22">
          <mxGeometry y="56" width="160" height="30" as="geometry" />
        </mxCell>
        <mxCell id="vNfD9TsJeQkA2UGQSEAP-25" value="fkCategory" style="text;strokeColor=none;fillColor=none;spacingLeft=4;spacingRight=4;overflow=hidden;rotatable=0;points=[[0,0.5],[1,0.5]];portConstraint=eastwest;fontSize=12;whiteSpace=wrap;html=1;" vertex="1" parent="vNfD9TsJeQkA2UGQSEAP-22">
          <mxGeometry y="86" width="160" height="30" as="geometry" />
        </mxCell>
        <mxCell id="vNfD9TsJeQkA2UGQSEAP-27" value="Categories" style="swimlane;fontStyle=0;childLayout=stackLayout;horizontal=1;startSize=26;horizontalStack=0;resizeParent=1;resizeParentMax=0;resizeLast=0;collapsible=1;marginBottom=0;align=center;fontSize=14;" vertex="1" parent="1">
          <mxGeometry x="1370" y="654" width="160" height="86" as="geometry" />
        </mxCell>
        <mxCell id="vNfD9TsJeQkA2UGQSEAP-28" value="pkCategory" style="text;strokeColor=none;fillColor=none;spacingLeft=4;spacingRight=4;overflow=hidden;rotatable=0;points=[[0,0.5],[1,0.5]];portConstraint=eastwest;fontSize=12;whiteSpace=wrap;html=1;" vertex="1" parent="vNfD9TsJeQkA2UGQSEAP-27">
          <mxGeometry y="26" width="160" height="30" as="geometry" />
        </mxCell>
        <mxCell id="vNfD9TsJeQkA2UGQSEAP-29" value="catName" style="text;strokeColor=none;fillColor=none;spacingLeft=4;spacingRight=4;overflow=hidden;rotatable=0;points=[[0,0.5],[1,0.5]];portConstraint=eastwest;fontSize=12;whiteSpace=wrap;html=1;" vertex="1" parent="vNfD9TsJeQkA2UGQSEAP-27">
          <mxGeometry y="56" width="160" height="30" as="geometry" />
        </mxCell>
        <mxCell id="vNfD9TsJeQkA2UGQSEAP-31" value="ProffesionList" style="swimlane;fontStyle=0;childLayout=stackLayout;horizontal=1;startSize=26;horizontalStack=0;resizeParent=1;resizeParentMax=0;resizeLast=0;collapsible=1;marginBottom=0;align=center;fontSize=14;" vertex="1" parent="1">
          <mxGeometry x="1200" y="228" width="160" height="86" as="geometry" />
        </mxCell>
        <mxCell id="vNfD9TsJeQkA2UGQSEAP-32" value="pkProffesion" style="text;strokeColor=none;fillColor=none;spacingLeft=4;spacingRight=4;overflow=hidden;rotatable=0;points=[[0,0.5],[1,0.5]];portConstraint=eastwest;fontSize=12;whiteSpace=wrap;html=1;" vertex="1" parent="vNfD9TsJeQkA2UGQSEAP-31">
          <mxGeometry y="26" width="160" height="30" as="geometry" />
        </mxCell>
        <mxCell id="vNfD9TsJeQkA2UGQSEAP-33" value="porfName" style="text;strokeColor=none;fillColor=none;spacingLeft=4;spacingRight=4;overflow=hidden;rotatable=0;points=[[0,0.5],[1,0.5]];portConstraint=eastwest;fontSize=12;whiteSpace=wrap;html=1;" vertex="1" parent="vNfD9TsJeQkA2UGQSEAP-31">
          <mxGeometry y="56" width="160" height="30" as="geometry" />
        </mxCell>
        <mxCell id="Pma2pajOsNX7nUtrYGS8-1" value="HobbyList" style="swimlane;fontStyle=0;childLayout=stackLayout;horizontal=1;startSize=26;horizontalStack=0;resizeParent=1;resizeParentMax=0;resizeLast=0;collapsible=1;marginBottom=0;align=center;fontSize=14;" vertex="1" parent="1">
          <mxGeometry x="1200" y="78" width="160" height="86" as="geometry" />
        </mxCell>
        <mxCell id="Pma2pajOsNX7nUtrYGS8-2" value="pkHobbyList" style="text;strokeColor=none;fillColor=none;spacingLeft=4;spacingRight=4;overflow=hidden;rotatable=0;points=[[0,0.5],[1,0.5]];portConstraint=eastwest;fontSize=12;whiteSpace=wrap;html=1;" vertex="1" parent="Pma2pajOsNX7nUtrYGS8-1">
          <mxGeometry y="26" width="160" height="30" as="geometry" />
        </mxCell>
        <mxCell id="Pma2pajOsNX7nUtrYGS8-3" value="hobbyName" style="text;strokeColor=none;fillColor=none;spacingLeft=4;spacingRight=4;overflow=hidden;rotatable=0;points=[[0,0.5],[1,0.5]];portConstraint=eastwest;fontSize=12;whiteSpace=wrap;html=1;" vertex="1" parent="Pma2pajOsNX7nUtrYGS8-1">
          <mxGeometry y="56" width="160" height="30" as="geometry" />
        </mxCell>
        <mxCell id="Pma2pajOsNX7nUtrYGS8-6" value="UserProffesionList" style="swimlane;fontStyle=0;childLayout=stackLayout;horizontal=1;startSize=26;horizontalStack=0;resizeParent=1;resizeParentMax=0;resizeLast=0;collapsible=1;marginBottom=0;align=center;fontSize=14;" vertex="1" parent="1">
          <mxGeometry x="970" y="228" width="160" height="116" as="geometry" />
        </mxCell>
        <mxCell id="Pma2pajOsNX7nUtrYGS8-7" value="pkProffesion" style="text;strokeColor=none;fillColor=none;spacingLeft=4;spacingRight=4;overflow=hidden;rotatable=0;points=[[0,0.5],[1,0.5]];portConstraint=eastwest;fontSize=12;whiteSpace=wrap;html=1;" vertex="1" parent="Pma2pajOsNX7nUtrYGS8-6">
          <mxGeometry y="26" width="160" height="30" as="geometry" />
        </mxCell>
        <mxCell id="Pma2pajOsNX7nUtrYGS8-8" value="fkUser" style="text;strokeColor=none;fillColor=none;spacingLeft=4;spacingRight=4;overflow=hidden;rotatable=0;points=[[0,0.5],[1,0.5]];portConstraint=eastwest;fontSize=12;whiteSpace=wrap;html=1;" vertex="1" parent="Pma2pajOsNX7nUtrYGS8-6">
          <mxGeometry y="56" width="160" height="30" as="geometry" />
        </mxCell>
        <mxCell id="Pma2pajOsNX7nUtrYGS8-12" value="fkPF" style="text;strokeColor=none;fillColor=none;spacingLeft=4;spacingRight=4;overflow=hidden;rotatable=0;points=[[0,0.5],[1,0.5]];portConstraint=eastwest;fontSize=12;whiteSpace=wrap;html=1;" vertex="1" parent="Pma2pajOsNX7nUtrYGS8-6">
          <mxGeometry y="86" width="160" height="30" as="geometry" />
        </mxCell>
        <mxCell id="Pma2pajOsNX7nUtrYGS8-9" value="UsersHobbyList" style="swimlane;fontStyle=0;childLayout=stackLayout;horizontal=1;startSize=26;horizontalStack=0;resizeParent=1;resizeParentMax=0;resizeLast=0;collapsible=1;marginBottom=0;align=center;fontSize=14;" vertex="1" parent="1">
          <mxGeometry x="970" y="83" width="160" height="116" as="geometry" />
        </mxCell>
        <mxCell id="Pma2pajOsNX7nUtrYGS8-10" value="pkUHB" style="text;strokeColor=none;fillColor=none;spacingLeft=4;spacingRight=4;overflow=hidden;rotatable=0;points=[[0,0.5],[1,0.5]];portConstraint=eastwest;fontSize=12;whiteSpace=wrap;html=1;" vertex="1" parent="Pma2pajOsNX7nUtrYGS8-9">
          <mxGeometry y="26" width="160" height="30" as="geometry" />
        </mxCell>
        <mxCell id="Pma2pajOsNX7nUtrYGS8-11" value="fkUser" style="text;strokeColor=none;fillColor=none;spacingLeft=4;spacingRight=4;overflow=hidden;rotatable=0;points=[[0,0.5],[1,0.5]];portConstraint=eastwest;fontSize=12;whiteSpace=wrap;html=1;" vertex="1" parent="Pma2pajOsNX7nUtrYGS8-9">
          <mxGeometry y="56" width="160" height="30" as="geometry" />
        </mxCell>
        <mxCell id="Pma2pajOsNX7nUtrYGS8-13" value="fkHL" style="text;strokeColor=none;fillColor=none;spacingLeft=4;spacingRight=4;overflow=hidden;rotatable=0;points=[[0,0.5],[1,0.5]];portConstraint=eastwest;fontSize=12;whiteSpace=wrap;html=1;" vertex="1" parent="Pma2pajOsNX7nUtrYGS8-9">
          <mxGeometry y="86" width="160" height="30" as="geometry" />
        </mxCell>
        <mxCell id="Pma2pajOsNX7nUtrYGS8-14" value="ProjectNeedPeoples" style="swimlane;fontStyle=0;childLayout=stackLayout;horizontal=1;startSize=26;horizontalStack=0;resizeParent=1;resizeParentMax=0;resizeLast=0;collapsible=1;marginBottom=0;align=center;fontSize=14;" vertex="1" parent="1">
          <mxGeometry x="1330" y="362" width="160" height="116" as="geometry" />
        </mxCell>
        <mxCell id="Pma2pajOsNX7nUtrYGS8-15" value="pkNeadPeoples" style="text;strokeColor=none;fillColor=none;spacingLeft=4;spacingRight=4;overflow=hidden;rotatable=0;points=[[0,0.5],[1,0.5]];portConstraint=eastwest;fontSize=12;whiteSpace=wrap;html=1;" vertex="1" parent="Pma2pajOsNX7nUtrYGS8-14">
          <mxGeometry y="26" width="160" height="30" as="geometry" />
        </mxCell>
        <mxCell id="Pma2pajOsNX7nUtrYGS8-16" value="fkProjcet" style="text;strokeColor=none;fillColor=none;spacingLeft=4;spacingRight=4;overflow=hidden;rotatable=0;points=[[0,0.5],[1,0.5]];portConstraint=eastwest;fontSize=12;whiteSpace=wrap;html=1;" vertex="1" parent="Pma2pajOsNX7nUtrYGS8-14">
          <mxGeometry y="56" width="160" height="30" as="geometry" />
        </mxCell>
        <mxCell id="Pma2pajOsNX7nUtrYGS8-17" value="fkUserProffesionList" style="text;strokeColor=none;fillColor=none;spacingLeft=4;spacingRight=4;overflow=hidden;rotatable=0;points=[[0,0.5],[1,0.5]];portConstraint=eastwest;fontSize=12;whiteSpace=wrap;html=1;" vertex="1" parent="Pma2pajOsNX7nUtrYGS8-14">
          <mxGeometry y="86" width="160" height="30" as="geometry" />
        </mxCell>
        <mxCell id="Pma2pajOsNX7nUtrYGS8-22" style="edgeStyle=orthogonalEdgeStyle;rounded=0;orthogonalLoop=1;jettySize=auto;html=1;exitX=0;exitY=0.5;exitDx=0;exitDy=0;entryX=1;entryY=0.5;entryDx=0;entryDy=0;" edge="1" parent="1" source="Pma2pajOsNX7nUtrYGS8-11" target="vNfD9TsJeQkA2UGQSEAP-2">
          <mxGeometry relative="1" as="geometry" />
        </mxCell>
        <mxCell id="Pma2pajOsNX7nUtrYGS8-23" style="edgeStyle=orthogonalEdgeStyle;rounded=0;orthogonalLoop=1;jettySize=auto;html=1;exitX=1;exitY=0.5;exitDx=0;exitDy=0;entryX=0;entryY=0.5;entryDx=0;entryDy=0;" edge="1" parent="1" source="Pma2pajOsNX7nUtrYGS8-13" target="Pma2pajOsNX7nUtrYGS8-1">
          <mxGeometry relative="1" as="geometry" />
        </mxCell>
        <mxCell id="Pma2pajOsNX7nUtrYGS8-26" style="edgeStyle=orthogonalEdgeStyle;rounded=0;orthogonalLoop=1;jettySize=auto;html=1;exitX=0;exitY=0.5;exitDx=0;exitDy=0;entryX=1;entryY=0.5;entryDx=0;entryDy=0;" edge="1" parent="1" source="Pma2pajOsNX7nUtrYGS8-8" target="vNfD9TsJeQkA2UGQSEAP-2">
          <mxGeometry relative="1" as="geometry" />
        </mxCell>
        <mxCell id="Pma2pajOsNX7nUtrYGS8-27" style="edgeStyle=orthogonalEdgeStyle;rounded=0;orthogonalLoop=1;jettySize=auto;html=1;exitX=1;exitY=0.5;exitDx=0;exitDy=0;entryX=0;entryY=0.5;entryDx=0;entryDy=0;" edge="1" parent="1" source="Pma2pajOsNX7nUtrYGS8-12" target="vNfD9TsJeQkA2UGQSEAP-31">
          <mxGeometry relative="1" as="geometry" />
        </mxCell>
        <mxCell id="Pma2pajOsNX7nUtrYGS8-29" style="edgeStyle=orthogonalEdgeStyle;rounded=0;orthogonalLoop=1;jettySize=auto;html=1;exitX=0;exitY=0.5;exitDx=0;exitDy=0;entryX=1;entryY=0.5;entryDx=0;entryDy=0;" edge="1" parent="1" source="vNfD9TsJeQkA2UGQSEAP-24" target="vNfD9TsJeQkA2UGQSEAP-18">
          <mxGeometry relative="1" as="geometry" />
        </mxCell>
        <mxCell id="Pma2pajOsNX7nUtrYGS8-30" style="edgeStyle=orthogonalEdgeStyle;rounded=0;orthogonalLoop=1;jettySize=auto;html=1;exitX=1;exitY=0.5;exitDx=0;exitDy=0;entryX=0;entryY=0.5;entryDx=0;entryDy=0;" edge="1" parent="1" source="vNfD9TsJeQkA2UGQSEAP-25" target="vNfD9TsJeQkA2UGQSEAP-28">
          <mxGeometry relative="1" as="geometry" />
        </mxCell>
        <mxCell id="Pma2pajOsNX7nUtrYGS8-31" style="edgeStyle=orthogonalEdgeStyle;rounded=0;orthogonalLoop=1;jettySize=auto;html=1;exitX=0;exitY=0.5;exitDx=0;exitDy=0;entryX=1;entryY=0.5;entryDx=0;entryDy=0;" edge="1" parent="1" source="Pma2pajOsNX7nUtrYGS8-16" target="vNfD9TsJeQkA2UGQSEAP-18">
          <mxGeometry relative="1" as="geometry">
            <Array as="points">
              <mxPoint x="1070" y="433" />
              <mxPoint x="1070" y="519" />
            </Array>
          </mxGeometry>
        </mxCell>
        <mxCell id="Pma2pajOsNX7nUtrYGS8-33" style="edgeStyle=orthogonalEdgeStyle;rounded=0;orthogonalLoop=1;jettySize=auto;html=1;exitX=1;exitY=0.5;exitDx=0;exitDy=0;entryX=1;entryY=0.5;entryDx=0;entryDy=0;" edge="1" parent="1" source="Pma2pajOsNX7nUtrYGS8-17" target="vNfD9TsJeQkA2UGQSEAP-32">
          <mxGeometry relative="1" as="geometry" />
        </mxCell>
        <mxCell id="Pma2pajOsNX7nUtrYGS8-34" style="edgeStyle=orthogonalEdgeStyle;rounded=0;orthogonalLoop=1;jettySize=auto;html=1;exitX=1;exitY=0.5;exitDx=0;exitDy=0;entryX=0;entryY=0.5;entryDx=0;entryDy=0;" edge="1" parent="1" source="vNfD9TsJeQkA2UGQSEAP-6" target="vNfD9TsJeQkA2UGQSEAP-2">
          <mxGeometry relative="1" as="geometry" />
        </mxCell>
        <mxCell id="Pma2pajOsNX7nUtrYGS8-36" style="edgeStyle=orthogonalEdgeStyle;rounded=0;orthogonalLoop=1;jettySize=auto;html=1;exitX=0;exitY=0.5;exitDx=0;exitDy=0;entryX=0;entryY=0.5;entryDx=0;entryDy=0;" edge="1" parent="1" source="vNfD9TsJeQkA2UGQSEAP-15" target="vNfD9TsJeQkA2UGQSEAP-16">
          <mxGeometry relative="1" as="geometry" />
        </mxCell>
        <mxCell id="Pma2pajOsNX7nUtrYGS8-37" value="ProjectResponse" style="swimlane;fontStyle=0;childLayout=stackLayout;horizontal=1;startSize=26;horizontalStack=0;resizeParent=1;resizeParentMax=0;resizeLast=0;collapsible=1;marginBottom=0;align=center;fontSize=14;" vertex="1" parent="1">
          <mxGeometry x="670" y="530" width="160" height="116" as="geometry" />
        </mxCell>
        <mxCell id="Pma2pajOsNX7nUtrYGS8-38" value="pkProjectResponse" style="text;strokeColor=none;fillColor=none;spacingLeft=4;spacingRight=4;overflow=hidden;rotatable=0;points=[[0,0.5],[1,0.5]];portConstraint=eastwest;fontSize=12;whiteSpace=wrap;html=1;" vertex="1" parent="Pma2pajOsNX7nUtrYGS8-37">
          <mxGeometry y="26" width="160" height="30" as="geometry" />
        </mxCell>
        <mxCell id="Pma2pajOsNX7nUtrYGS8-39" value="fkProjcet" style="text;strokeColor=none;fillColor=none;spacingLeft=4;spacingRight=4;overflow=hidden;rotatable=0;points=[[0,0.5],[1,0.5]];portConstraint=eastwest;fontSize=12;whiteSpace=wrap;html=1;" vertex="1" parent="Pma2pajOsNX7nUtrYGS8-37">
          <mxGeometry y="56" width="160" height="30" as="geometry" />
        </mxCell>
        <mxCell id="Pma2pajOsNX7nUtrYGS8-40" value="fkUser" style="text;strokeColor=none;fillColor=none;spacingLeft=4;spacingRight=4;overflow=hidden;rotatable=0;points=[[0,0.5],[1,0.5]];portConstraint=eastwest;fontSize=12;whiteSpace=wrap;html=1;" vertex="1" parent="Pma2pajOsNX7nUtrYGS8-37">
          <mxGeometry y="86" width="160" height="30" as="geometry" />
        </mxCell>
        <mxCell id="Pma2pajOsNX7nUtrYGS8-41" style="edgeStyle=orthogonalEdgeStyle;rounded=0;orthogonalLoop=1;jettySize=auto;html=1;exitX=1;exitY=0.5;exitDx=0;exitDy=0;entryX=0;entryY=0.5;entryDx=0;entryDy=0;" edge="1" parent="1" source="Pma2pajOsNX7nUtrYGS8-39" target="vNfD9TsJeQkA2UGQSEAP-18">
          <mxGeometry relative="1" as="geometry" />
        </mxCell>
        <mxCell id="Pma2pajOsNX7nUtrYGS8-42" style="edgeStyle=orthogonalEdgeStyle;rounded=0;orthogonalLoop=1;jettySize=auto;html=1;exitX=0;exitY=0.5;exitDx=0;exitDy=0;entryX=0;entryY=0.5;entryDx=0;entryDy=0;" edge="1" parent="1" source="Pma2pajOsNX7nUtrYGS8-40" target="vNfD9TsJeQkA2UGQSEAP-2">
          <mxGeometry relative="1" as="geometry" />
        </mxCell>
      </root>
    </mxGraphModel>
  </diagram>
</mxfile>
